<?xml version="1.0" encoding="UTF-8"?>
<svg xmlns="http://www.w3.org/2000/svg" viewBox="0 0 912.06 1014.54">
  <defs>
    <style>
      .cls-1 { fill: #4a3727; }
      .cls-2 { fill: #a36e3d; }
      .cls-3 { fill: #f1cc94; }
    </style>
  </defs>
  <g id="Capa_1" data-name="Capa 1">
    <rect class="cls-3" width="912.06" height="1014.54"/>
    <g>
      <g>
        <path class="cls-1" d="M205.77,616.49c0-13.58,10.63-24.51,24.8-24.51s24.51,10.92,24.51,24.51-10.33,24.8-24.51,24.8-24.8-10.92-24.8-24.8ZM207.84,668.75c0-2.66,1.77-4.43,4.43-4.43h36.61c2.66,0,4.43,1.77,4.43,4.43v135.81c0,2.66-1.77,4.43-4.43,4.43h-36.61c-2.66,0-4.43-1.77-4.43-4.43v-135.81Z"/>
        <path class="cls-1" d="M286.67,804.56v-202.24c0-2.66,1.77-4.43,4.43-4.43h36.32c2.66,0,4.72,1.77,4.72,4.43v116.33l42.81-51.96c1.48-1.77,3.25-2.36,5.31-2.36h40.74c4.13,0,5.02,2.36,2.66,5.61l-48.12,55.21,55.8,78.24c2.07,3.25.89,5.61-2.66,5.61h-38.97c-2.36,0-3.84-.59-5.31-2.66l-36.02-49.89-16.24,18.9v29.23c0,2.66-2.07,4.43-4.72,4.43h-36.32c-2.66,0-4.43-1.77-4.43-4.43Z"/>
        <path class="cls-1" d="M454.66,804.56v-202.24c0-2.66,1.77-4.43,4.43-4.43h36.32c2.66,0,4.72,1.77,4.72,4.43v116.33l42.81-51.96c1.48-1.77,3.25-2.36,5.31-2.36h40.74c4.13,0,5.02,2.36,2.66,5.61l-48.12,55.21,55.8,78.24c2.07,3.25.89,5.61-2.66,5.61h-38.97c-2.36,0-3.84-.59-5.31-2.66l-36.02-49.89-16.24,18.9v29.23c0,2.66-2.07,4.43-4.72,4.43h-36.32c-2.66,0-4.43-1.77-4.43-4.43Z"/>
        <path class="cls-1" d="M620.89,616.49c0-13.58,10.63-24.51,24.8-24.51s24.51,10.92,24.51,24.51-10.33,24.8-24.51,24.8-24.8-10.92-24.8-24.8ZM622.95,668.75c0-2.66,1.77-4.43,4.43-4.43h36.61c2.66,0,4.43,1.77,4.43,4.43v135.81c0,2.66-1.77,4.43-4.43,4.43h-36.61c-2.66,0-4.43-1.77-4.43-4.43v-135.81Z"/>
      </g>
      <g>
        <path class="cls-1" d="M211.52,906.89c-.53-.75-.53-1.49.21-2.34l4.48-5.12c.85-.96,1.71-.85,2.45-.11,4.37,5.01,8.95,7.99,15.99,7.99,7.78,0,12.58-3.73,12.58-10.23s-4.69-8.95-10.98-11.94l-9.06-4.26c-7.89-3.73-14.17-9.38-14.17-19.39,0-12.58,9.8-19.93,21.95-19.93,8.74,0,15.56,3.52,20.99,9.7.85.85.75,1.6,0,2.45l-4.37,5.22c-.75.96-1.6.96-2.45.21-4.37-4.37-8.42-6.61-13.75-6.61-6.29,0-10.76,3.2-10.76,8.95,0,4.9,2.98,7.35,9.16,10.34l8.21,3.84c8.42,4.05,16.84,9.17,16.84,21.42,0,13.96-11.08,21.21-24.08,21.21-11.19,0-18.97-5.33-23.23-11.4Z"/>
        <path class="cls-1" d="M271.19,890.91c0-15.45,11.51-27.39,27.07-27.39s26.96,11.93,26.96,27.39-11.51,27.39-26.96,27.39-27.07-11.94-27.07-27.39ZM298.26,907.64c8.95,0,15.88-6.71,15.88-16.73s-6.93-16.73-15.88-16.73-15.99,6.71-15.99,16.73,6.93,16.73,15.99,16.73Z"/>
        <path class="cls-1" d="M342.91,915.42v-41.46h-6.29c-.96,0-1.49-.64-1.49-1.6v-5.97c0-.96.53-1.6,1.49-1.6h6.29v-9.8c0-10.66,5.75-15.88,15.99-15.88,2.45,0,4.48.21,6.61,1.28.75.32.96.75.96,1.49v7.25c0,.75-.64.85-1.28.75-1.6-.21-2.88-.43-4.05-.43-5.54,0-6.71,3.2-6.71,7.46v7.88h10.55c.96,0,1.49.64,1.49,1.6v5.97c0,.96-.53,1.6-1.49,1.6h-10.55v41.46c0,.96-.53,1.6-1.49,1.6h-8.53c-.96,0-1.49-.64-1.49-1.6Z"/>
        <path class="cls-1" d="M384.04,904.23v-30.26h-6.71c-.96,0-1.49-.64-1.49-1.6v-5.97c0-.96.53-1.6,1.49-1.6h6.71v-12.26c0-.96.53-1.6,1.49-1.6h8.63c.96,0,1.49.64,1.49,1.6v12.26h8.42c.96,0,1.6.64,1.6,1.6v5.97c0,.96-.64,1.6-1.6,1.6h-8.42v28.88c0,3.52,1.71,5.01,4.69,5.01.85,0,2.13,0,3.3-.11,1.28-.21,1.92.32,1.92,1.39v5.76c0,2.13-4.69,2.77-7.89,2.77-7.78,0-13.64-3.73-13.64-13.43Z"/>
        <path class="cls-1" d="M432.95,915.74l-16.73-49.13c-.43-1.17.11-1.81,1.28-1.81h8.21c.85,0,1.6.43,1.92,1.28l12.15,37.83,12.89-37.83c.32-.85,1.07-1.28,1.92-1.28h8.53c.85,0,1.6.43,1.92,1.28l12.89,37.83,12.15-37.83c.32-.85.96-1.28,1.81-1.28h8.31c1.17,0,1.6.64,1.17,1.81l-16.62,49.13c-.32.85-1.07,1.28-1.92,1.28h-8.95c-.85,0-1.6-.43-1.92-1.28l-13.11-37.83-13.11,37.83c-.32.85-1.07,1.28-1.92,1.28h-8.95c-.85,0-1.6-.43-1.92-1.28Z"/>
        <path class="cls-1" d="M508.82,890.91c0-15.45,10.23-27.39,25.15-27.39,8.63,0,14.81,3.84,18.44,9.91l.21-7.03c0-.96.53-1.6,1.49-1.6h7.78c.96,0,1.49.64,1.49,1.6v49.02c0,.96-.53,1.6-1.49,1.6h-7.78c-.96,0-1.49-.64-1.49-1.6l-.21-6.93c-3.73,6.07-9.91,9.81-18.44,9.81-14.92,0-25.15-11.83-25.15-27.39ZM536.2,907.74c9.27,0,15.77-6.71,15.77-16.73s-6.5-16.94-15.77-16.94-16.2,6.82-16.2,16.84,6.82,16.84,16.2,16.84Z"/>
        <path class="cls-1" d="M580.21,915.42v-49.02c0-.96.53-1.6,1.49-1.6h8.1c.96,0,1.49.43,1.49,1.71l.32,6.29c1.92-5.22,5.33-9.27,11.62-9.27,2.34,0,3.94.53,4.8,1.17.75.53.96,1.07.96,2.02v6.82c0,1.17-.75,1.49-2.02,1.17-1.28-.43-2.45-.53-3.84-.53-8.21,0-11.4,6.4-11.4,13.11v28.14c0,.96-.53,1.6-1.49,1.6h-8.53c-.96,0-1.49-.64-1.49-1.6Z"/>
        <path class="cls-1" d="M617.61,890.69c0-15.34,10.66-27.17,26.54-27.17s24.72,11.83,24.72,24.83c0,4.58-.96,6.82-4.9,6.82h-35.17c1.39,8.31,7.57,13.85,17.9,13.85,5.12,0,9.27-1.28,13.43-4.05.64-.42,1.28-.32,1.71.32l2.98,4.05c.64.85.43,1.49-.43,2.34-4.58,4.48-11.3,6.61-18.65,6.61-17.05,0-28.13-12.04-28.13-27.6ZM658.64,886.86c-.64-8.53-6.29-13.64-14.49-13.64s-14.28,5.01-15.45,13.64h29.94Z"/>
      </g>
    </g>
  </g>
  <g id="Capa_2" data-name="Capa 2">
    <g>
      <path class="cls-3" d="M338.06,476.63l64.54-.72s20.96-.47,33.13.27c12.17.74,19.38.85,34.47,21.28,13.77,18.65,71.26,10.26,103.42,12.21,32.15,1.95-1.32-41.78-3.35-51.5-2.03-9.72,52.96-53.48,77.87-61.56,27.52-7.92,56.21-28.43,75.33-51.1,18.48-21.92,9.65-35.7-33.26-52.76-51.42-20.44-72.11-55.64-87.53-81.19-39.34-65.2-99.19-104.58-99.19-104.58-6.72-4.25-2.06,4.44.08,14.86,2.14,10.42-3.78,10.06-11.33,4.06-26.88-20.24-87.48-26.29-100.58-25.71-12.31.63,8.93,22.52,12.19,27.47,3.26,4.95,1.52,7.61-9.85,5.74-47.21-4.84-91.23,9.51-105.49,16.17-14.26,6.66,7.79,17.5,12.24,20.33,4.45,2.84,1.15,6.49-9.58,9.7-18.83,5.54-59.81,38.36-74.44,53.6-14.28,16.06,10.09,13.11,18.87,14.45,8.79,1.34,9.09,2.97,1.42,9.76-23.51,28.8-36.23,59.07-42.28,85.71-4.77,25.51,13.24,7.66,19.84,5.23,6.6-2.42,5.78,4.38,2.6,18.81-7.88,66.47,33.54,81.29,37.37,95.14,10.28,50.4,26.62,46.46,55.29,46.59,28.86.77,19.4-25.89,19.4-25.89,0,0-1.95-7.55,8.84-6.36Z"/>
      <path class="cls-2" d="M289.77,454.49c45.14.54,92.12-14.33,134.34-85.68,53.88-86.42,48.36-154.86,114.11-162.99,35.8-4.42,66.1,8.24,51.8-11.78l-19.63-26.55c-32.91-39.12-69.13-60.06-69.13-60.06-6.72-4.25-2.06,4.44.08,14.86,2.14,10.42-3.78,10.06-11.33,4.06-26.88-20.24-87.48-26.29-100.58-25.71-12.31.63,8.93,22.52,12.19,27.47,3.26,4.95,1.52,7.61-9.85,5.74-47.21-4.84-91.23,9.51-105.49,16.17-14.26,6.66,7.79,17.5,12.24,20.33,4.45,2.84,1.15,6.49-9.58,9.7-18.83,5.54-59.81,38.36-74.44,53.6-14.28,16.06,10.09,13.11,18.87,14.45,8.79,1.34,9.09,2.97,1.42,9.76-23.51,28.8-36.23,59.07-42.28,85.71-4.77,25.51,13.24,7.66,19.84,5.23,6.6-2.42,5.78,4.38,2.6,18.81-2.61,22.02-1.22,39.04,5.24,50.9,8.58,15.74,33.54,35.55,69.59,35.99Z"/>
      <path class="cls-2" d="M518.91,470.65s29.16-1.22,46.58-21.47c2.99,2.03,35.24,50.63,19.04,57.92-16.2,7.29-53.68,5.27-53.68,5.27,0,0-12.74-38.07-11.93-41.72Z"/>
      <path class="cls-1" d="M520.84,519.25c-26.03,0-49.85-2.31-60.01-16.07-12.38-16.76-16.74-17.02-27.27-17.66l-.6-.04c-11.65-.71-32.18-.26-32.39-.25l-63.82.71c1.01,5.69,1.36,14.68-4.01,22.07-3.53,4.86-10.78,10.59-25.39,10.18-1.8,0-3.74,0-5.62.02-29.08.19-47.55-2.32-58.04-53.26-.64-1.63-4.43-5.47-7.21-8.3-13.7-13.91-36.64-37.2-30.37-90.11l.15-.87c.17-.78.45-2.03.74-3.45-5.65,3.23-12.29,5.75-18.31,1.69-8.03-5.42-5.85-17.04-4.92-22l.07-.33c6.9-30.39,20.95-59.73,40.73-85.18-8.74-.42-18.82-1.42-22.37-9.79-3.59-8.49,3.36-16.31,5.64-18.88l.23-.25c14.67-15.28,54.86-47.75,76.37-55.33-6.24-4.27-12.12-9.91-11.79-17.41.14-3.12,1.6-8.94,9.85-12.79,16.53-7.72,58.99-20.85,104.89-17.42-8.06-10.17-12.93-18.28-9.65-25.7.88-2,3.74-6.69,11.22-7.07,12.78-.58,70.21,4.46,101.54,24.17-1.67-5.86-3.3-12.36,2.31-16.57,2.57-1.93,6.94-3.4,13.18.55,2.65,1.74,62.13,41.34,102.05,107.5l.64,1.06c15.43,25.58,34.63,57.41,82.56,76.47,30.19,12,43.89,22.38,47.26,35.83,2.4,9.58-1.03,19.69-10.49,30.91-21.24,25.18-51.69,45.81-79.51,53.86-21.61,7.09-64.89,41.69-71.25,52.61.93,2.05,2.79,5.51,4.24,8.2,7.79,14.49,17.48,32.51,9.85,44.43-3.85,6.02-10.75,8.77-20.51,8.19-8.4-.51-18.81-.28-29.82-.03-6.75.15-13.54.3-20.19.3Z"/>
      <circle class="cls-1" cx="582.28" cy="298.58" r="17.55"/>
    </g>
  </g>
</svg>
